<?xml version="1.0" encoding="utf-8"?>
<!-- Generator: Adobe Illustrator 16.0.0, SVG Export Plug-In . SVG Version: 6.00 Build 0)  -->
<!DOCTYPE svg PUBLIC "-//W3C//DTD SVG 1.1//EN" "http://www.w3.org/Graphics/SVG/1.1/DTD/svg11.dtd">
<svg version="1.1" id="Layer_1" xmlns="http://www.w3.org/2000/svg" xmlns:xlink="http://www.w3.org/1999/xlink" x="0px" y="0px"
	 width="1280px" height="800px" viewBox="0 0 1280 800" enable-background="new 0 0 1280 800" xml:space="preserve">
<g id="tear">
	<polygon fill="#FFFFFF" stroke="#000000" stroke-miterlimit="10" points="669.075,697.59 784.962,590.521 784.962,500.456 
		888.882,500.456 794.409,463.297 742.135,385.199 795.669,358.747 820.861,281.909 922.893,329.775 989.653,295.765 
		927.931,263.014 987.434,221.73 1052.635,200.032 1111.838,119.416 1280,-0.25 1280,35.02 1236.542,47.616 1173.561,96.742 
		1104.28,176.1 1084.126,235.302 1019.885,259.235 1027.022,357.908 862.43,407.873 1015.921,587.197 897.699,600.598 
		779.293,691.291 828.42,763.721 744.023,763.721 721.35,800.25 669.075,800.25 	"/>
</g>
<g id="Layer_2">
</g>
</svg>
